<svg width="25" height="25" viewBox="0 0 25 25" fill="none" xmlns="http://www.w3.org/2000/svg">
<path fill-rule="evenodd" clip-rule="evenodd" d="M12.1777 24.8477C8.99514 24.8477 5.94289 23.5907 3.69245 21.3534C1.44202 19.1162 0.177734 16.0818 0.177734 12.9178V12.7073C0.196384 9.55544 1.4689 6.53915 3.71731 4.31703C5.96573 2.0949 9.00733 0.847602 12.1777 0.847656V0.847656C15.3481 0.847602 18.3897 2.0949 20.6382 4.31703C22.8866 6.53915 24.1591 9.55544 24.1777 12.7073V12.9178C24.1777 16.0818 22.9135 19.1162 20.663 21.3534C18.4126 23.5907 15.3603 24.8477 12.1777 24.8477V24.8477Z" fill="url(#paint0_linear_68_194)"/>
<path fill-rule="evenodd" clip-rule="evenodd" d="M16.82 11.1838L14.862 12.1883V10.5559C14.8704 9.97339 14.7622 9.3951 14.5438 8.85456C14.3254 8.31402 14.001 7.82194 13.5897 7.40712C13.1783 6.9923 12.688 6.66293 12.1475 6.43813C11.6069 6.21333 11.0268 6.0976 10.4408 6.09766V7.03952C10.4067 7.78159 10.1867 8.50352 9.80061 9.13954C9.41455 9.77556 8.87474 10.3055 8.23024 10.6814C7.4658 11.1635 6.83815 11.8319 6.40699 12.6232C5.97584 13.4146 5.75554 14.3024 5.76703 15.2023C5.76931 16.0371 5.97088 16.8596 6.35518 17.6019C6.73949 18.3442 7.29555 18.9851 7.97763 19.4721L8.1671 19.5977H16.2516L16.441 19.4721C17.1042 18.9716 17.6428 18.3263 18.0151 17.5859C18.3875 16.8456 18.5837 16.03 18.5885 15.2023C18.5991 13.8467 18.0781 12.5403 17.1358 11.5604L16.82 11.1838ZM15.7463 18.2163H13.4725C13.4725 17.2338 13.0799 16.2915 12.3811 15.5967C11.6822 14.902 10.7344 14.5117 9.7461 14.5117V15.8931C10.3659 15.8931 10.9603 16.1379 11.3985 16.5736C11.8368 17.0092 12.083 17.6001 12.083 18.2163H8.60923C8.15893 17.8373 7.79609 17.3663 7.54541 16.8354C7.29472 16.3044 7.16206 15.7261 7.15652 15.1396C7.15579 14.4851 7.32379 13.8413 7.64444 13.2697C7.96509 12.6981 8.4277 12.2177 8.98817 11.8744C9.70488 11.431 10.3217 10.8453 10.7999 10.1538C11.2781 9.46222 11.6075 8.67986 11.7672 7.85583C12.277 8.10237 12.7069 8.48599 13.0084 8.96325C13.3098 9.44051 13.4706 9.99232 13.4725 10.5559V14.5117L16.441 12.9419C16.9415 13.5896 17.2084 14.3856 17.199 15.2023C17.2064 15.7819 17.0792 16.3554 16.8272 16.8782C16.5752 17.4009 16.2053 17.8589 15.7463 18.2163Z" fill="white"/>
<defs>
<linearGradient id="paint0_linear_68_194" x1="12.1784" y1="24.8493" x2="12.1784" y2="0.849316" gradientUnits="userSpaceOnUse">
<stop stop-color="#F9B147"/>
<stop offset="1" stop-color="#FDC944"/>
</linearGradient>
</defs>
</svg>
