<svg width="13" height="14" viewBox="0 0 13 14" fill="none" xmlns="http://www.w3.org/2000/svg">
<path fill-rule="evenodd" clip-rule="evenodd" d="M11.1423 5.55046L9.18431 6.55502V4.92256C9.19268 4.34009 9.08451 3.7618 8.86608 3.22126C8.64764 2.68072 8.32331 2.18864 7.91193 1.77382C7.50055 1.359 7.01031 1.02963 6.46975 0.804829C5.92918 0.580026 5.34906 0.464296 4.76311 0.464355V1.40622C4.72901 2.14829 4.50893 2.87022 4.12287 3.50624C3.73681 4.14226 3.19701 4.67222 2.55251 5.04811C1.78807 5.53016 1.16042 6.1986 0.72926 6.98993C0.298103 7.78125 0.0778048 8.66912 0.0892947 9.56901C0.0915718 10.4038 0.293143 11.2263 0.677449 11.9686C1.06175 12.7109 1.61782 13.3518 2.29989 13.8388L2.48937 13.9644H10.5738L10.7633 13.8388C11.4265 13.3383 11.9651 12.693 12.3374 11.9526C12.7098 11.2123 12.9059 10.3967 12.9108 9.56901C12.9214 8.21343 12.4003 6.90704 11.4581 5.92711L11.1423 5.55046ZM10.0686 12.583H7.79478C7.79478 11.6005 7.4022 10.6582 6.70336 9.96344C6.00452 9.26868 5.05668 8.8784 4.06836 8.8784V10.2598C4.68815 10.2598 5.28254 10.5046 5.7208 10.9403C6.15906 11.3759 6.40529 11.9668 6.40529 12.583H2.93149C2.4812 12.204 2.11836 11.733 1.86767 11.2021C1.61699 10.6711 1.48433 10.0928 1.47878 9.50631C1.47806 8.85183 1.64606 8.20798 1.96671 7.63638C2.28736 7.06479 2.74997 6.5844 3.31044 6.24107C4.02714 5.7977 4.64394 5.21199 5.12216 4.52046C5.60039 3.82892 5.92974 3.04656 6.08949 2.22253C6.59922 2.46907 7.0292 2.85269 7.33064 3.32995C7.63208 3.80721 7.79286 4.35902 7.79478 4.92256V8.8784L10.7633 7.30863C11.2638 7.95632 11.5307 8.75235 11.5212 9.56901C11.5286 10.1486 11.4014 10.7221 11.1495 11.2449C10.8975 11.7676 10.5276 12.2256 10.0686 12.583Z" fill="url(#paint0_linear_840_2491)"/>
<defs>
<linearGradient id="paint0_linear_840_2491" x1="6.50023" y1="13.9653" x2="6.50023" y2="0.465289" gradientUnits="userSpaceOnUse">
<stop stop-color="#F9B147"/>
<stop offset="1" stop-color="#FDC944"/>
</linearGradient>
</defs>
</svg>
