<svg width="33" height="33" viewBox="0 0 25 25" fill="none" xmlns="http://www.w3.org/2000/svg">
<path fill-rule="evenodd" clip-rule="evenodd" d="M12.4463 0.547852C5.81887 0.547852 0.446289 5.92043 0.446289 12.5479C0.446289 19.1753 5.81887 24.5479 12.4463 24.5479C19.0737 24.5479 24.4463 19.1753 24.4463 12.5479C24.4463 5.92043 19.0737 0.547852 12.4463 0.547852ZM9.80851 6.18662C10.4912 6.15555 10.7093 6.14795 12.4475 6.14795H12.4455C14.1842 6.14795 14.4015 6.15555 15.0842 6.18662C15.7655 6.21782 16.2308 6.32568 16.6389 6.48395C17.0602 6.64729 17.4162 6.86596 17.7722 7.22196C18.1282 7.5777 18.3469 7.93477 18.5109 8.3557C18.6682 8.76264 18.7762 9.22771 18.8082 9.90905C18.8389 10.5917 18.8469 10.8099 18.8469 12.548C18.8469 14.2862 18.8389 14.5038 18.8082 15.1864C18.7762 15.8675 18.6682 16.3327 18.5109 16.7398C18.3469 17.1606 18.1282 17.5177 17.7722 17.8734C17.4166 18.2294 17.0601 18.4486 16.6393 18.6121C16.232 18.7703 15.7664 18.8782 15.0851 18.9094C14.4024 18.9405 14.185 18.9481 12.4467 18.9481C10.7087 18.9481 10.4907 18.9405 9.80798 18.9094C9.12677 18.8782 8.66157 18.7703 8.25436 18.6121C7.83369 18.4486 7.47662 18.2294 7.12102 17.8734C6.76515 17.5177 6.54648 17.1606 6.38288 16.7397C6.22474 16.3327 6.11688 15.8676 6.08554 15.1863C6.05461 14.5036 6.04688 14.2862 6.04688 12.548C6.04688 10.8099 6.05487 10.5916 6.08541 9.90892C6.11608 9.22785 6.22408 8.76264 6.38275 8.35557C6.54675 7.93477 6.76542 7.5777 7.12142 7.22196C7.47716 6.86609 7.83423 6.64742 8.25517 6.48395C8.6621 6.32568 9.12717 6.21782 9.80851 6.18662Z" fill="#FFBDC8"/>
<path fill-rule="evenodd" clip-rule="evenodd" d="M11.8728 7.30092C11.9843 7.30074 12.1042 7.3008 12.2336 7.30085L12.4469 7.30092C14.1557 7.30092 14.3583 7.30705 15.0331 7.33772C15.6571 7.36625 15.9958 7.47052 16.2214 7.55812C16.52 7.67412 16.733 7.81279 16.9568 8.03679C17.1808 8.26079 17.3195 8.47413 17.4358 8.7728C17.5234 8.99813 17.6278 9.3368 17.6562 9.96081C17.6868 10.6355 17.6935 10.8382 17.6935 12.5462C17.6935 14.2542 17.6868 14.4569 17.6562 15.1315C17.6276 15.7555 17.5234 16.0942 17.4358 16.3195C17.3198 16.6182 17.1808 16.8309 16.9568 17.0548C16.7328 17.2788 16.5202 17.4174 16.2214 17.5334C15.996 17.6214 15.6571 17.7254 15.0331 17.754C14.3584 17.7846 14.1557 17.7913 12.4469 17.7913C10.738 17.7913 10.5354 17.7846 9.86076 17.754C9.23675 17.7252 8.89808 17.6209 8.67234 17.5333C8.37367 17.4173 8.16034 17.2786 7.93634 17.0546C7.71233 16.8306 7.57367 16.6178 7.4574 16.319C7.3698 16.0937 7.2654 15.755 7.237 15.131C7.20633 14.4563 7.2002 14.2537 7.2002 12.5446C7.2002 10.8355 7.20633 10.6339 7.237 9.95921C7.26553 9.3352 7.3698 8.99653 7.4574 8.77093C7.5734 8.47226 7.71233 8.25893 7.93634 8.03492C8.16034 7.81092 8.37367 7.67225 8.67234 7.55599C8.89795 7.46798 9.23675 7.36398 9.86076 7.33532C10.4512 7.30865 10.68 7.30065 11.8728 7.29932V7.30092ZM15.8637 8.36355C15.4397 8.36355 15.0957 8.70715 15.0957 9.13129C15.0957 9.55529 15.4397 9.8993 15.8637 9.8993C16.2877 9.8993 16.6317 9.55529 16.6317 9.13129C16.6317 8.70728 16.2877 8.36328 15.8637 8.36328V8.36355ZM9.16016 12.5474C9.16016 10.7324 10.6317 9.26081 12.4467 9.26074C14.2618 9.26074 15.733 10.7324 15.733 12.5474C15.733 14.3625 14.2619 15.8335 12.4469 15.8335C10.6318 15.8335 9.16016 14.3625 9.16016 12.5474Z" fill="#FFBDC8"/>
<path d="M12.4468 10.4141C13.625 10.4141 14.5802 11.3691 14.5802 12.5474C14.5802 13.7256 13.625 14.6808 12.4468 14.6808C11.2686 14.6808 10.3135 13.7256 10.3135 12.5474C10.3135 11.3691 11.2686 10.4141 12.4468 10.4141Z" fill="#FFBDC8"/>
</svg>
