<svg width="32" height="33" viewBox="0 0 32 33" fill="none" xmlns="http://www.w3.org/2000/svg">
<path fill-rule="evenodd" clip-rule="evenodd" d="M16 0.214355C7.16344 0.214355 0 7.3778 0 16.2144C0 25.0509 7.16344 32.2144 16 32.2144C24.8366 32.2144 32 25.0509 32 16.2144C32 7.3778 24.8366 0.214355 16 0.214355ZM12.483 7.73271C13.3932 7.69129 13.684 7.68115 16.0016 7.68115H15.9989C18.3172 7.68115 18.6069 7.69129 19.5172 7.73271C20.4256 7.77431 21.0461 7.91813 21.5901 8.12916C22.1519 8.34694 22.6265 8.6385 23.1012 9.11317C23.5759 9.58748 23.8674 10.0636 24.0861 10.6248C24.2959 11.1674 24.4399 11.7875 24.4826 12.696C24.5234 13.6062 24.5341 13.897 24.5341 16.2146C24.5341 18.5321 24.5234 18.8222 24.4826 19.7325C24.4399 20.6406 24.2959 21.2608 24.0861 21.8036C23.8674 22.3647 23.5759 22.8408 23.1012 23.3151C22.6271 23.7898 22.1517 24.082 21.5906 24.3C21.0477 24.511 20.4269 24.6548 19.5184 24.6964C18.6082 24.7379 18.3182 24.748 16.0005 24.748C13.6832 24.748 13.3925 24.7379 12.4823 24.6964C11.574 24.6548 10.9537 24.511 10.4108 24.3C9.84987 24.082 9.37378 23.7898 8.89964 23.3151C8.42515 22.8408 8.13359 22.3647 7.91545 21.8034C7.70461 21.2608 7.56078 20.6407 7.519 19.7323C7.47776 18.8221 7.46745 18.5321 7.46745 16.2146C7.46745 13.897 7.47811 13.606 7.51883 12.6958C7.55972 11.7877 7.70372 11.1674 7.91527 10.6246C8.13394 10.0636 8.4255 9.58748 8.90017 9.11317C9.37449 8.63867 9.85058 8.34711 10.4118 8.12916C10.9544 7.91813 11.5745 7.77431 12.483 7.73271Z" fill="white"/>
<path fill-rule="evenodd" clip-rule="evenodd" d="M15.2355 9.21844C15.3841 9.21821 15.544 9.21828 15.7166 9.21836L16.001 9.21844C18.2794 9.21844 18.5495 9.22662 19.4492 9.26751C20.2812 9.30555 20.7328 9.44458 21.0336 9.56138C21.4318 9.71605 21.7157 9.90094 22.0142 10.1996C22.3129 10.4983 22.4978 10.7827 22.6528 11.181C22.7696 11.4814 22.9088 11.933 22.9467 12.765C22.9876 13.6645 22.9964 13.9348 22.9964 16.2121C22.9964 18.4895 22.9876 18.7597 22.9467 19.6593C22.9086 20.4913 22.7696 20.9428 22.6528 21.2433C22.4981 21.6415 22.3129 21.9251 22.0142 22.2236C21.7155 22.5222 21.432 22.7071 21.0336 22.8618C20.7331 22.9791 20.2812 23.1178 19.4492 23.1558C18.5496 23.1967 18.2794 23.2056 16.001 23.2056C13.7224 23.2056 13.4523 23.1967 12.5528 23.1558C11.7208 23.1174 11.2692 22.9784 10.9682 22.8616C10.57 22.7069 10.2856 22.522 9.98689 22.2234C9.68822 21.9247 9.50333 21.641 9.34831 21.2426C9.23151 20.9421 9.09231 20.4906 9.05444 19.6586C9.01355 18.759 9.00537 18.4888 9.00537 16.21C9.00537 13.9312 9.01355 13.6624 9.05444 12.7628C9.09248 11.9308 9.23151 11.4793 9.34831 11.1785C9.50298 10.7802 9.68822 10.4958 9.98689 10.1971C10.2856 9.89845 10.57 9.71356 10.9682 9.55853C11.269 9.4412 11.7208 9.30253 12.5528 9.26431C13.34 9.22875 13.6451 9.21809 15.2355 9.21631V9.21844ZM20.5567 10.6353C19.9914 10.6353 19.5327 11.0934 19.5327 11.6589C19.5327 12.2243 19.9914 12.6829 20.5567 12.6829C21.1221 12.6829 21.5807 12.2243 21.5807 11.6589C21.5807 11.0936 21.1221 10.6349 20.5567 10.6349V10.6353ZM11.6187 16.2138C11.6187 13.7938 13.5807 11.8316 16.0007 11.8315C18.4209 11.8315 20.3825 13.7937 20.3825 16.2138C20.3825 18.6339 18.421 20.5952 16.0009 20.5952C13.5808 20.5952 11.6187 18.6339 11.6187 16.2138Z" fill="white"/>
<path d="M16.0007 13.3693C17.5716 13.3693 18.8452 14.6427 18.8452 16.2138C18.8452 17.7846 17.5716 19.0583 16.0007 19.0583C14.4297 19.0583 13.1562 17.7846 13.1562 16.2138C13.1562 14.6427 14.4297 13.3693 16.0007 13.3693Z" fill="white"/>
</svg>
