<svg width="32" height="33" viewBox="0 0 32 33" fill="none" xmlns="http://www.w3.org/2000/svg">
<path fill-rule="evenodd" clip-rule="evenodd" d="M12.6444 32.2144H19.6474V25.2982H32V18.9177H0V25.2982H12.6444V32.2144Z" fill="#FFBDC8"/>
<path fill-rule="evenodd" clip-rule="evenodd" d="M24.997 0.214355C24.997 2.60412 24.0491 4.89604 22.3618 6.58586C20.6746 8.27568 18.3861 9.22498 16 9.22498C13.6139 9.22498 11.3254 8.27568 9.63819 6.58586C7.95093 4.89604 7.00305 2.60412 7.00305 0.214355H0C0 4.46427 1.68573 8.54004 4.68631 11.5452C7.68689 14.5503 11.7565 16.2386 16 16.2386C20.2435 16.2386 24.3131 14.5503 27.3137 11.5452C30.3143 8.54004 32 4.46427 32 0.214355H24.997Z" fill="#FFBDC8"/>
</svg>
