<svg width="25" height="25" viewBox="0 0 25 25" fill="none" xmlns="http://www.w3.org/2000/svg">
<path fill-rule="evenodd" clip-rule="evenodd" d="M12.2131 24.8477C9.02116 24.8477 5.9599 23.5907 3.70283 21.3534C1.44575 19.1162 0.177734 16.0818 0.177734 12.9178V12.7073C0.196439 9.55544 1.47271 6.53915 3.72776 4.31703C5.98281 2.0949 9.03339 0.847602 12.2131 0.847656C15.3864 0.847656 18.4296 2.09719 20.6734 4.32131C22.9172 6.54543 24.1777 9.56188 24.1777 12.7073V12.9178C24.1778 16.0697 22.9195 19.0935 20.6777 21.3288C18.4359 23.564 15.3929 24.8291 12.2131 24.8477Z" fill="url(#paint0_linear_68_200)"/>
<path fill-rule="evenodd" clip-rule="evenodd" d="M16.6751 9.93707C16.4989 8.87327 15.945 7.90697 15.1132 7.21236C14.3301 6.49687 13.3044 6.09901 12.2394 6.09766V7.46001C12.9399 7.48592 13.6158 7.72368 14.1761 8.14126C14.7286 8.60045 15.1039 9.23489 15.2382 9.93707H15.1757C14.539 10.1149 13.9859 10.5096 13.6138 11.0518C13.2441 11.5552 13.047 12.163 13.0516 12.7857C13.0396 13.118 12.9485 13.4426 12.7856 13.7332C12.6227 14.0239 12.3927 14.2722 12.1145 14.4577C11.4599 14.9221 10.67 15.1613 9.86536 15.1388C9.08 15.1616 8.30978 14.9217 7.67875 14.4577C7.40645 14.2956 7.17857 14.0696 7.01515 13.7996C6.85173 13.5296 6.75778 13.224 6.74163 12.9096H5.36719C5.3698 13.7861 5.54787 14.6534 5.89104 15.4613C6.2342 16.2692 6.73565 17.0015 7.36638 17.6159C8.65281 18.8655 10.3759 19.5755 12.1769 19.5977C13.0765 19.5977 13.9671 19.421 14.7974 19.0779C15.6277 18.7348 16.3812 18.232 17.0143 17.5987C17.6475 16.9653 18.1478 16.2139 18.4863 15.3878C18.8249 14.5617 18.9949 13.6774 18.9867 12.7857C19.0082 12.1313 18.7858 11.4919 18.3619 10.9898C17.9807 10.4413 17.3973 10.0632 16.7375 9.93707H16.6751ZM12.1769 18.2971C11.3999 18.2951 10.6326 18.1261 9.92785 17.8017C9.23569 17.4761 8.61886 17.0123 8.11608 16.4393L7.92866 16.2535H8.17854C8.43245 16.3732 8.70962 16.4366 8.99074 16.4393L9.86536 16.5632C11.0438 16.5637 12.1881 16.171 13.114 15.4485C13.5176 15.1283 13.8446 14.7234 14.0714 14.263C14.2983 13.8026 14.4194 13.2981 14.426 12.7857C14.439 12.3756 14.5933 11.9822 14.8633 11.671C15.0102 11.5255 15.1861 11.4118 15.3797 11.3372C15.5732 11.2626 15.7803 11.2287 15.9878 11.2376C16.2053 11.2238 16.4232 11.2552 16.6276 11.3298C16.832 11.4045 17.0185 11.5207 17.1749 11.671C17.4449 11.9822 17.5992 12.3756 17.6122 12.7857C17.6019 14.2156 17.0435 15.5881 16.0503 16.6252C15.5478 17.1433 14.9469 17.5577 14.2821 17.8446C13.6173 18.1316 12.9019 18.2854 12.1769 18.2971Z" fill="white"/>
<defs>
<linearGradient id="paint0_linear_68_200" x1="12.1777" y1="0.847656" x2="12.1777" y2="24.8477" gradientUnits="userSpaceOnUse">
<stop stop-color="#B20D30"/>
<stop offset="1" stop-color="#E7204A"/>
</linearGradient>
</defs>
</svg>
