<svg width="15" height="14" viewBox="0 0 15 14" fill="none" xmlns="http://www.w3.org/2000/svg">
<path fill-rule="evenodd" clip-rule="evenodd" d="M11.9974 4.30377C11.8212 3.23997 11.2672 2.27367 10.4355 1.57906C9.65238 0.863566 8.62668 0.465705 7.56164 0.464355V1.82671C8.2622 1.85262 8.93803 2.09038 9.49838 2.50796C10.0509 2.96714 10.4261 3.60159 10.5604 4.30377H10.498C9.86124 4.48161 9.3082 4.87635 8.93609 5.41847C8.56636 5.92195 8.3693 6.52972 8.37384 7.15244C8.3619 7.48469 8.27076 7.80932 8.10788 8.09994C7.94499 8.39055 7.71501 8.63886 7.43673 8.82443C6.78218 9.28882 5.99224 9.52798 5.18762 9.50553C4.40226 9.52828 3.63204 9.28843 3.00102 8.82443C2.72871 8.66233 2.50084 8.43629 2.33742 8.16631C2.17399 7.89633 2.08005 7.59071 2.0639 7.27627H0.689453C0.692061 8.15283 0.870135 9.02014 1.2133 9.82801C1.55647 10.6359 2.05792 11.3682 2.68864 11.9826C3.97507 13.2322 5.69813 13.9422 7.49919 13.9644C8.39873 13.9644 9.28936 13.7877 10.1196 13.4446C10.9499 13.1015 11.7034 12.5987 12.3366 11.9654C12.9698 11.332 13.4701 10.5806 13.8086 9.75453C14.1471 8.92843 14.3172 8.04406 14.3089 7.15244C14.3305 6.49805 14.1081 5.85862 13.6842 5.35649C13.303 4.80796 12.7196 4.42991 12.0598 4.30377H11.9974ZM7.49919 12.6638C6.72217 12.6618 5.95485 12.4928 5.25012 12.1684C4.55796 11.8428 3.94112 11.379 3.43834 10.806L3.25093 10.6202H3.5008C3.75471 10.7399 4.03189 10.8033 4.313 10.806L5.18762 10.9299C6.36606 10.9304 7.51039 10.5377 8.4363 9.81516C8.83987 9.49495 9.16682 9.09013 9.39367 8.6297C9.62052 8.16927 9.74162 7.6648 9.74825 7.15244C9.76126 6.74227 9.9156 6.34885 10.1856 6.03774C10.3325 5.89222 10.5083 5.77854 10.7019 5.70392C10.8955 5.62929 11.1026 5.59539 11.3101 5.60428C11.5275 5.59048 11.7455 5.62185 11.9499 5.69651C12.1543 5.77116 12.3407 5.88742 12.4971 6.03774C12.7671 6.34885 12.9215 6.74227 12.9345 7.15244C12.9241 8.58232 12.3658 9.95481 11.3726 10.9919C10.8701 11.51 10.2691 11.9244 9.60438 12.2113C8.93961 12.4983 8.22416 12.6521 7.49919 12.6638Z" fill="#B20D30"/>
</svg>
