<svg width="76" height="28" viewBox="0 0 76 28" fill="none" xmlns="http://www.w3.org/2000/svg">
<path d="M72.0482 19.3725C71.968 19.3187 71.801 19.1118 71.677 18.9127C71.4822 18.6 71.4491 18.5136 71.4337 18.2781C71.4171 18.0228 71.4329 17.9673 71.6837 17.4019C71.8309 17.0698 72.0548 16.5342 72.1812 16.2116C72.3076 15.889 72.429 15.5804 72.4509 15.5258C72.4872 15.4353 72.6449 15.5947 74.2278 17.3215C75.1831 18.3638 75.9581 19.2219 75.9498 19.2285C75.9361 19.2395 72.3541 19.4743 72.2429 19.4715C72.216 19.4708 72.1283 19.4262 72.0482 19.3725ZM70.825 15.9664C70.8244 15.2054 70.8155 15.1162 70.7011 14.713C70.4376 13.7849 69.9529 12.9641 69.2333 12.2268C67.5277 10.4796 65.4512 9.89996 62.9561 10.4746C62.4516 10.5908 61.7176 10.941 61.1406 11.3409C60.8963 11.5102 60.6512 11.6489 60.5959 11.6491C60.5407 11.6494 60.3307 11.5483 60.1294 11.4247C59.3907 10.9709 58.7593 10.7706 58.0529 10.7659C57.3483 10.7612 57.0971 10.8388 55.9649 11.4107C55.7492 11.5196 55.2307 11.6412 55.1826 11.5941C55.1412 11.5536 55.4025 10.8342 55.628 10.3678C56.0234 9.5501 56.4967 8.91311 57.1978 8.25538C58.0062 7.49685 58.9525 6.96068 60.1831 6.56397C63.4256 5.51863 66.2881 6.09571 68.5985 8.26052C69.9444 9.52156 70.8344 11.0096 71.1629 12.5481C71.4114 13.7119 71.3207 15.2152 70.9265 16.466L70.8258 16.7856L70.825 15.9664H70.825ZM71.6094 10.3381L70.5715 8.33372L70.9652 8.35996C71.1817 8.3744 72.3385 8.43775 73.5358 8.50074C74.7331 8.56374 75.7497 8.629 75.7949 8.64576C75.8636 8.67122 75.6136 8.97753 74.2729 10.5105C73.3906 11.5193 72.6639 12.3442 72.658 12.3436C72.6521 12.343 72.1802 11.4405 71.6094 10.3381ZM52.5611 11.8034C52.2006 11.6262 51.7232 11.1719 50.5504 9.88984C49.9177 9.19808 49.811 9.06252 49.8924 9.05322C50.2467 9.01273 55.0049 8.65413 55.018 8.66693C55.039 8.68749 54.2565 10.6315 54.0098 11.1716C53.7924 11.6477 53.716 11.7421 53.4496 11.8646C53.1616 11.9969 52.9213 11.9804 52.5611 11.8034ZM57.1941 4.11813C57.2471 2.87168 57.2972 1.77027 57.3052 1.67056L57.3199 1.48927L59.2747 3.05395C60.3498 3.91453 61.2353 4.62418 61.2424 4.63095C61.252 4.64017 58.2721 5.90203 57.2309 6.32962L57.0976 6.3844L57.1941 4.11813ZM66.5163 5.5644C65.4167 5.13718 64.4719 4.76774 64.4167 4.74341C64.3235 4.70236 64.4573 4.56861 66.2826 2.87849C67.3641 1.8771 68.2559 1.06398 68.2643 1.07156C68.2751 1.08117 68.5633 5.85556 68.5809 6.3162C68.5816 6.33412 68.5672 6.34707 68.5489 6.34497C68.5305 6.34288 67.6159 5.99162 66.5163 5.5644Z" fill="#F2AF29"/>
<path d="M3.74163 26.6649C3.1742 26.596 2.5516 26.3658 2.06689 26.0458C1.75467 25.8397 1.27909 25.3797 0.992107 25.0061C0.720173 24.6522 0.353362 24.0795 0.38304 24.0552C0.441071 24.0077 1.40731 23.4671 1.43406 23.4671C1.45209 23.4671 1.52259 23.5636 1.59073 23.6816C1.80309 24.0492 2.21573 24.5577 2.52463 24.8326C3.04038 25.2915 3.54524 25.4971 4.15594 25.4968C5.09751 25.4965 5.92983 25.0261 6.30917 24.2799C6.93759 23.0437 6.35843 21.9719 4.17132 20.3233C2.59572 19.1356 2.05127 18.6605 1.73638 18.1984C0.983104 17.0928 1.00575 15.7115 1.79382 14.6951C2.16872 14.2115 2.83878 13.7971 3.51145 13.6327C3.92065 13.5327 4.68959 13.5319 5.11157 13.631C5.56594 13.7378 6.17092 14.0427 6.55342 14.3578C6.87546 14.6231 7.66733 15.4929 7.66733 15.5813C7.66733 15.6274 6.71614 16.3378 6.6567 16.3362C6.63806 16.3357 6.56849 16.2606 6.50211 16.1693C6.27325 15.8546 5.73315 15.3277 5.469 15.1613C5.0662 14.9077 4.68366 14.8103 4.18648 14.8347C3.9124 14.8482 3.69415 14.8864 3.52271 14.9508C3.18658 15.0772 2.81811 15.4065 2.65779 15.7239C2.54457 15.9481 2.53359 16.012 2.53359 16.4474C2.53359 16.9154 2.53704 16.9317 2.70702 17.2661C2.95023 17.7445 3.38999 18.1569 4.56028 19.0041C6.4125 20.3449 7.07286 20.9793 7.53318 21.8599C8.29188 23.3114 7.8919 24.9551 6.53588 25.9583C5.76951 26.5253 4.73876 26.7859 3.74163 26.6649ZM14.5535 26.6617C12.695 26.4699 11.2656 25.3256 10.9408 23.7695C10.7969 23.0806 10.779 22.4564 10.7788 18.1412L10.7787 13.8308H11.401H12.0232L12.0242 17.9467C12.0251 22.1111 12.0515 23.0651 12.1784 23.5287C12.4196 24.4103 13.0656 25.0224 14.1039 25.3533C14.4552 25.4653 14.5464 25.4763 15.1124 25.4751C15.6994 25.4739 15.755 25.4663 16.095 25.3399C17.1136 24.9615 17.7436 24.2298 17.9681 23.1646C18.0262 22.8889 18.0393 22.167 18.0554 18.3357L18.0743 13.8308H18.6935H19.3127V18.0149C19.3127 22.3118 19.2983 22.752 19.1313 23.5463C18.9678 24.3239 18.7621 24.7619 18.3086 25.298C17.6604 26.0642 16.7277 26.5524 15.7031 26.6618C15.2253 26.7129 15.0491 26.7128 14.5535 26.6617ZM22.5574 20.1181V13.8308H22.6831C22.7945 13.8308 23.2979 14.3772 27.1168 18.6431L31.4248 23.4554L31.4361 18.6431L31.4474 13.8308H32.0695H32.6915V20.1181V26.4054H32.5685C32.4608 26.4054 31.9166 25.8164 28.1793 21.6547C25.8329 19.0418 23.8981 16.9028 23.8797 16.9014C23.8614 16.9 23.8464 19.0378 23.8464 21.6522V26.4054H23.2019H22.5574V20.1181ZM36.7378 20.237C35.9456 16.8443 35.2889 14.015 35.2784 13.9497L35.2594 13.8308L36.4535 13.8311L37.6475 13.8314L38.5745 17.8174C39.0844 20.0097 39.5094 21.8115 39.5191 21.8214C39.5287 21.8313 39.5427 21.8313 39.5503 21.8214C39.561 21.8075 41.7469 14.244 41.8378 13.9064C41.8565 13.8372 41.9439 13.8308 42.8732 13.8308H43.8882L43.9283 13.9713C44.674 16.5832 46.2286 21.8174 46.2516 21.7932C46.2688 21.775 46.6766 20.049 47.1577 17.9575C47.6388 15.8661 48.0518 14.082 48.0754 13.9929L48.1184 13.8308H49.3176H50.5169L50.4887 13.9399C50.4732 13.9999 49.8164 16.8243 49.0291 20.2164L47.5976 26.3838L46.4229 26.3952L45.2481 26.4065L44.139 22.6141C43.5291 20.5283 42.9913 18.6954 42.944 18.5409L42.8581 18.26L42.805 18.4113C42.7759 18.4945 42.244 20.3272 41.6231 22.484L40.4943 26.4054H39.3362H38.1782L36.7378 20.237ZM52.5153 20.1181V13.8308H56.0267H59.5381V14.9975V16.1643H57.2268H54.9155V17.2878V18.4113H57.2268H59.5381V19.578V20.7447H57.2268H54.9155V22.4084V24.072H57.2268H59.5381V25.2387V26.4054H56.0267H52.5153V20.1181ZM61.8938 20.1181V13.8308L63.0606 13.8312C64.3959 13.8317 65.5174 13.8885 66.0877 13.9847C67.804 14.2742 68.9194 15.394 68.9947 16.9031C69.0422 17.8577 68.6656 18.7016 67.9455 19.2539C67.8215 19.349 67.7193 19.4396 67.7183 19.4552C67.7173 19.4709 67.8644 19.5627 68.0452 19.6591C68.6761 19.9958 69.189 20.4539 69.4817 20.9423C69.8369 21.5349 69.9604 22.0736 69.9258 22.8802C69.8973 23.5437 69.8272 23.8247 69.5585 24.3529C69.0729 25.3072 68.261 25.9518 67.2214 26.2081C66.5929 26.3631 65.8548 26.4054 63.7805 26.4054H61.8938V20.1181ZM66.3792 23.9659C66.9526 23.827 67.3321 23.5311 67.4757 23.1108C67.5894 22.7779 67.5475 22.1757 67.3898 21.8775C67.0247 21.1873 66.2444 20.8743 64.8883 20.8743H64.294V22.479V24.0837L65.1941 24.0593C65.7924 24.0431 66.1898 24.0118 66.3792 23.9659ZM65.5031 18.7083C66.0067 18.6044 66.3546 18.3593 66.5328 17.983C66.6048 17.8309 66.6268 17.6992 66.6271 17.4174C66.6276 17.0921 66.6127 17.0241 66.4982 16.8231C66.3493 16.5618 66.1573 16.4051 65.8334 16.2802C65.6516 16.2102 65.4722 16.1885 64.9496 16.1736L64.294 16.1548V17.4559V18.757H64.7808C65.0485 18.757 65.3735 18.7351 65.5031 18.7083Z" fill="white"/>
</svg>
