<svg width="24" height="25" viewBox="0 0 24 25" fill="none" xmlns="http://www.w3.org/2000/svg">
<path fill-rule="evenodd" clip-rule="evenodd" d="M0 12.8477C0 19.4751 5.37258 24.8477 12 24.8477C18.6274 24.8477 24 19.4751 24 12.8477C24 6.22024 18.6274 0.847656 12 0.847656C5.37258 0.847656 0 6.22024 0 12.8477ZM9.79972 18.3474L10.0039 15.2885L10.0037 15.2884L15.5682 10.2669C15.8124 10.0502 15.5149 9.94447 15.1907 10.1411L8.32336 14.4736L5.35706 13.5477C4.71648 13.3516 4.71187 12.9114 5.50089 12.5949L17.0599 8.13783C17.5878 7.89815 18.0974 8.26463 17.8958 9.07265L15.9273 18.349C15.7899 19.0081 15.3916 19.1658 14.8397 18.8613L11.8411 16.6459L10.3997 18.0474C10.3952 18.0518 10.3907 18.0562 10.3862 18.0606C10.225 18.2176 10.0916 18.3474 9.79972 18.3474Z" fill="#FFBDC8"/>
</svg>
