<svg width="32" height="33" viewBox="0 0 32 33" fill="none" xmlns="http://www.w3.org/2000/svg">
<path fill-rule="evenodd" clip-rule="evenodd" d="M0 16.2144C0 25.0509 7.16344 32.2144 16 32.2144C24.8366 32.2144 32 25.0509 32 16.2144C32 7.3778 24.8366 0.214355 16 0.214355C7.16344 0.214355 0 7.3778 0 16.2144ZM13.0663 23.548L13.3385 19.4695L13.3383 19.4693L20.7576 12.774C21.0832 12.485 20.6865 12.3441 20.2542 12.6062L11.0978 18.3829L7.14275 17.1484C6.28863 16.8869 6.2825 16.3 7.33451 15.878L22.7465 9.93524C23.4504 9.61567 24.1298 10.1043 23.8611 11.1817L21.2364 23.5501C21.0532 24.429 20.5221 24.6392 19.7863 24.2332L15.7881 21.2793L13.8663 23.148C13.8602 23.1539 13.8542 23.1598 13.8482 23.1656C13.6333 23.3749 13.4554 23.548 13.0663 23.548Z" fill="white"/>
</svg>
