<svg width="22" height="24" viewBox="0 0 22 24" fill="none" xmlns="http://www.w3.org/2000/svg">
<path fill-rule="evenodd" clip-rule="evenodd" d="M5.30025 7.54765C5.30025 6.14765 6.90024 4.74765 10.6002 4.74765C14.3002 4.74765 15.6002 5.94766 16.1002 8.64766H21.1002C21.1002 8.64766 21.1002 0.847656 10.5002 0.847656C6.40025 0.847656 0.400248 2.24765 0.400248 7.74765C0.400248 16.7477 16.3002 11.4477 16.3002 16.9477C16.3002 18.5477 15.2002 19.9477 11.2002 19.9477C7.20025 19.9477 5.50025 17.4477 5.00025 16.0477H0.000246232C0.000246232 16.0477 -0.199755 23.8477 10.8002 23.8477C18.2002 23.8477 21.4002 20.4477 21.4002 16.9477C21.4002 7.04766 5.30025 12.1477 5.30025 7.54765Z" fill="white"/>
</svg>
