<svg width="15" height="14" viewBox="0 0 15 14" fill="none" xmlns="http://www.w3.org/2000/svg">
<path fill-rule="evenodd" clip-rule="evenodd" d="M3.57411 11.3059L3.44208 11.438C2.85952 12.0836 2.35049 12.7918 1.92426 13.5498L0.736328 12.9557H0.802306C1.3234 12.0335 1.943 11.1706 2.65018 10.382L2.78213 10.2501C2.31738 9.33379 2.13376 8.30063 2.25423 7.28032C2.42926 6.25811 2.91285 5.31386 3.64009 4.57449C4.76853 3.50011 6.12074 2.68888 7.59975 2.19879C9.49053 1.5008 11.4656 1.05696 13.4733 0.878906H14.2652V1.67081C14.0871 3.67843 13.6433 5.65345 12.9453 7.54423C12.4552 9.02323 11.6439 10.3755 10.5695 11.5039C9.64784 12.3922 8.41789 12.889 7.13782 12.8898C6.50269 12.8965 5.87253 12.7774 5.28358 12.5396C4.69464 12.3017 4.15848 11.9497 3.70607 11.5039L3.57411 11.3059ZM4.49805 10.316V10.4481C5.17588 11.0878 6.07376 11.4422 7.00578 11.438C7.91763 11.4389 8.79384 11.0837 9.44762 10.4481C10.3449 9.49726 11.0408 8.37488 11.4934 7.14836C12.0663 5.56871 12.4646 3.93101 12.6813 2.26469C11.015 2.48132 9.37741 2.87969 7.79776 3.45262C6.57124 3.90525 5.44886 4.60119 4.49805 5.4985C4.03942 5.97554 3.71992 6.56878 3.57411 7.21426C3.45197 7.85289 3.49741 8.51237 3.70607 9.12819C4.38598 8.4397 5.11377 7.80007 5.88391 7.21426C6.70683 6.61151 7.56642 6.0605 8.4577 5.5644H8.52368L9.18363 6.68627H9.11765C8.25587 7.13652 7.43829 7.6669 6.67581 8.27023C5.9069 8.83366 5.17916 9.4512 4.49805 10.1181V10.316Z" fill="#006666"/>
</svg>
