<svg width="25" height="25" viewBox="0 0 25 25" fill="none" xmlns="http://www.w3.org/2000/svg">
<path fill-rule="evenodd" clip-rule="evenodd" d="M12.2131 24.8477C9.02114 24.8477 5.95985 23.5907 3.70278 21.3534C1.4457 19.1162 0.177734 16.0818 0.177734 12.9178V12.7073C0.196439 9.55544 1.4727 6.53915 3.72775 4.31703C5.9828 2.0949 9.03337 0.847602 12.2131 0.847656V0.847656C13.7843 0.847656 15.3401 1.15437 16.7917 1.75038C18.2433 2.34638 19.5623 3.22004 20.6733 4.32131C21.7844 5.42258 22.6657 6.72992 23.2669 8.1688C23.8682 9.60768 24.1777 11.1498 24.1777 12.7073V12.9178C24.1778 16.0697 22.9195 19.0935 20.6777 21.3288C18.4359 23.564 15.3928 24.8291 12.2131 24.8477Z" fill="#006666"/>
<path fill-rule="evenodd" clip-rule="evenodd" d="M8.25185 16.9392L8.11981 17.0713C7.53725 17.7169 7.02822 18.4251 6.60199 19.1831V19.1831L5.41406 18.589H5.48004C6.00113 17.6668 6.62074 16.8039 7.32791 16.0153L7.45987 15.8834C6.99511 14.9671 6.81149 13.9339 6.93196 12.9136C7.10699 11.8914 7.59058 10.9472 8.31783 10.2078C9.44626 9.13342 10.7985 8.32218 12.2775 7.83209C14.1683 7.1341 16.1434 6.69026 18.151 6.51221H18.9429V7.30411C18.7648 9.31173 18.321 11.2868 17.623 13.1775C17.1329 14.6565 16.3216 16.0088 15.2472 17.1372C14.3256 18.0255 13.0956 18.5223 11.8156 18.5231C11.1804 18.5298 10.5503 18.4107 9.96132 18.1729C9.37237 17.935 8.83621 17.583 8.3838 17.1372L8.25185 16.9392ZM9.17578 15.9493V16.0814C9.85361 16.7211 10.7515 17.0755 11.6835 17.0713C12.5954 17.0722 13.4716 16.717 14.1254 16.0814C15.0227 15.1306 15.7185 14.0082 16.1712 12.7817C16.7441 11.202 17.1424 9.56431 17.359 7.89799C15.6927 8.11462 14.0551 8.51299 12.4755 9.08592C11.249 9.53855 10.1266 10.2345 9.17578 11.1318C8.71716 11.6088 8.39765 12.2021 8.25185 12.8476C8.1297 13.4862 8.17514 14.1457 8.3838 14.7615C9.06372 14.073 9.7915 13.4334 10.5616 12.8476C11.3846 12.2448 12.2442 11.6938 13.1354 11.1977H13.2014L13.8614 12.3196H13.7954C12.9336 12.7698 12.116 13.3002 11.3535 13.9035C10.5846 14.467 9.8569 15.0845 9.17578 15.7514V15.9493Z" fill="white"/>
</svg>
