<svg width="25" height="25" viewBox="0 0 25 25" fill="none" xmlns="http://www.w3.org/2000/svg">
<path fill-rule="evenodd" clip-rule="evenodd" d="M12.4463 0.547852C5.81887 0.547852 0.446289 5.92043 0.446289 12.5479C0.446289 19.1753 5.81887 24.5479 12.4463 24.5479C19.0737 24.5479 24.4463 19.1753 24.4463 12.5479C24.4463 5.92043 19.0737 0.547852 12.4463 0.547852ZM13.4239 16.3358C13.3056 16.4605 13.0746 16.4857 13.0746 16.4857H12.3096C12.3096 16.4857 10.6217 16.5852 9.13488 15.0661C7.51342 13.4088 6.08164 10.1204 6.08164 10.1204C6.08164 10.1204 5.99901 9.90473 6.08853 9.80087C6.18932 9.6835 6.46416 9.67612 6.46416 9.67612L8.29285 9.66445C8.29285 9.66445 8.46501 9.6921 8.58834 9.78121C8.69039 9.85495 8.74736 9.99199 8.74736 9.99199C8.74736 9.99199 9.04285 10.7257 9.43413 11.3894C10.1985 12.6855 10.5541 12.9688 10.8133 12.8299C11.1915 12.6277 11.0781 10.998 11.0781 10.998C11.0781 10.998 11.085 10.4068 10.8878 10.1432C10.7351 9.93914 10.4471 9.87953 10.32 9.86294C10.2167 9.84942 10.3857 9.61467 10.6048 9.50959C10.9341 9.35165 11.5151 9.34243 12.2019 9.34919C12.7372 9.35472 12.8912 9.38729 13.1003 9.43707C13.5856 9.55202 13.5704 9.92042 13.5377 10.7155C13.5279 10.9533 13.5166 11.2292 13.5166 11.548C13.5166 11.6196 13.5145 11.6959 13.5123 11.7745C13.5009 12.1818 13.4879 12.6483 13.7614 12.8219C13.9016 12.9104 14.2441 12.8348 15.1011 11.4066C15.5074 10.7294 15.8117 9.93361 15.8117 9.93361C15.8117 9.93361 15.8787 9.79165 15.982 9.73081C16.0878 9.66875 16.2305 9.6878 16.2305 9.6878L18.155 9.67612C18.155 9.67612 18.7335 9.60791 18.8267 9.86478C18.925 10.1333 18.6108 10.7614 17.8244 11.7901C17.0785 12.7662 16.7156 13.1256 16.7489 13.4434C16.7732 13.6756 17.0092 13.8857 17.462 14.298C18.4072 15.1594 18.6605 15.6126 18.7214 15.7215C18.7264 15.7305 18.7301 15.7372 18.7328 15.7415C19.1567 16.4316 18.2627 16.4857 18.2627 16.4857L16.5529 16.509C16.5529 16.509 16.1861 16.5803 15.7028 16.2546C15.4496 16.0842 15.2022 15.8058 14.9666 15.5406C14.6067 15.1356 14.2743 14.7614 13.9905 14.8498C13.5141 14.9985 13.5285 16.0058 13.5285 16.0058C13.5285 16.0058 13.5322 16.2214 13.4239 16.3358Z" fill="#FFBDC8"/>
</svg>
