<svg width="32" height="33" viewBox="0 0 32 33" fill="none" xmlns="http://www.w3.org/2000/svg">
<path fill-rule="evenodd" clip-rule="evenodd" d="M16 0.214355C7.16344 0.214355 0 7.3778 0 16.2144C0 25.0509 7.16344 32.2144 16 32.2144C24.8366 32.2144 32 25.0509 32 16.2144C32 7.3778 24.8366 0.214355 16 0.214355ZM17.3035 21.2649C17.1458 21.4312 16.8378 21.4648 16.8378 21.4648H15.8177C15.8177 21.4648 13.5673 21.5976 11.5848 19.5721C9.42284 17.3622 7.51381 12.9778 7.51381 12.9778C7.51381 12.9778 7.40362 12.6902 7.52299 12.5517C7.65738 12.3952 8.02383 12.3854 8.02383 12.3854L10.4621 12.3698C10.4621 12.3698 10.6916 12.4067 10.8561 12.5255C10.9921 12.6238 11.0681 12.8065 11.0681 12.8065C11.0681 12.8065 11.4621 13.7849 11.9838 14.6698C13.003 16.3978 13.4771 16.7756 13.8227 16.5904C14.3269 16.3208 14.1758 14.1478 14.1758 14.1478C14.1758 14.1478 14.185 13.3596 13.922 13.0081C13.7184 12.7361 13.3344 12.6566 13.1649 12.6345C13.0272 12.6164 13.2526 12.3034 13.5447 12.1633C13.9838 11.9528 14.7584 11.9405 15.6741 11.9495C16.3878 11.9569 16.5932 12.0003 16.872 12.0666C17.519 12.2199 17.4988 12.7111 17.4552 13.7712C17.4422 14.0883 17.4271 14.4562 17.4271 14.8812C17.4271 14.9767 17.4242 15.0785 17.4213 15.1832C17.4062 15.7263 17.3889 16.3482 17.7535 16.5797C17.9404 16.6977 18.397 16.5969 19.5398 14.6927C20.0815 13.7898 20.4872 12.7287 20.4872 12.7287C20.4872 12.7287 20.5765 12.5394 20.7143 12.4583C20.8553 12.3756 21.0456 12.401 21.0456 12.401L23.6116 12.3854C23.6116 12.3854 24.3829 12.2944 24.5073 12.6369C24.6383 12.995 24.2193 13.8324 23.1709 15.204C22.1763 16.5055 21.6924 16.9847 21.7368 17.4084C21.7693 17.7181 22.0839 17.9982 22.6876 18.5479C23.9478 19.6964 24.2856 20.3007 24.3668 20.4459C24.3735 20.4579 24.3785 20.4668 24.3821 20.4726C24.9472 21.3927 23.7552 21.4648 23.7552 21.4648L21.4755 21.496C21.4755 21.496 20.9864 21.591 20.342 21.1567C20.0044 20.9295 19.6745 20.5582 19.3604 20.2046C18.8805 19.6647 18.4373 19.1658 18.059 19.2837C17.4237 19.4819 17.4429 20.8249 17.4429 20.8249C17.4429 20.8249 17.4479 21.1125 17.3035 21.2649Z" fill="white"/>
</svg>
