<svg width="32" height="33" viewBox="0 0 32 33" fill="none" xmlns="http://www.w3.org/2000/svg">
<path fill-rule="evenodd" clip-rule="evenodd" d="M0 16.2144C0 25.0509 7.16344 32.2144 16 32.2144C24.8366 32.2144 32 25.0509 32 16.2144C32 7.3778 24.8366 0.214355 16 0.214355C7.16344 0.214355 0 7.3778 0 16.2144ZM26.0417 15.6012C26.0396 20.8458 21.7733 25.1131 16.5276 25.1153H16.5237C14.9314 25.1147 13.3668 24.7152 11.9772 23.9572L6.93359 25.2802L8.28334 20.3501C7.45075 18.9073 7.01265 17.2706 7.01336 15.5937C7.01545 10.348 11.2835 6.08024 16.5276 6.08024C19.0727 6.08134 21.4615 7.07215 23.2577 8.87051C25.054 10.6688 26.0427 13.0591 26.0417 15.6012Z" fill="white"/>
<path fill-rule="evenodd" clip-rule="evenodd" d="M9.21686 23.0204L12.2098 22.2353L12.4985 22.4067C13.7127 23.1272 15.1044 23.5084 16.5234 23.5089H16.5266C20.8851 23.5089 24.4325 19.9615 24.4342 15.6012C24.435 13.4882 23.6133 11.5014 22.1203 10.0067C20.6273 8.51197 18.6419 7.6884 16.5297 7.68767C12.1678 7.68767 8.62038 11.2348 8.61865 15.5948C8.61804 17.089 9.03611 18.5441 9.82769 19.8031L10.0157 20.1023L9.21686 23.0204ZM20.9935 17.6496C21.1593 17.7297 21.2713 17.7838 21.3191 17.8636C21.3785 17.9627 21.3785 18.4387 21.1805 18.9941C20.9823 19.5494 20.0326 20.0562 19.5758 20.1244C19.1663 20.1857 18.648 20.2112 18.0785 20.0302C17.7332 19.9207 17.2905 19.7744 16.7233 19.5295C14.4947 18.5671 12.9886 16.4071 12.7039 15.9989C12.684 15.9703 12.67 15.9503 12.6623 15.9399L12.6603 15.9373C12.5345 15.7695 11.6916 14.6448 11.6916 13.4807C11.6916 12.3857 12.2295 11.8117 12.4771 11.5475C12.494 11.5294 12.5096 11.5128 12.5236 11.4975C12.7415 11.2595 12.999 11.2 13.1575 11.2C13.316 11.2 13.4746 11.2015 13.6131 11.2085C13.6302 11.2093 13.648 11.2092 13.6664 11.2091C13.8049 11.2083 13.9776 11.2073 14.148 11.6165C14.2136 11.774 14.3095 12.0076 14.4106 12.2538C14.6152 12.7518 14.8412 13.302 14.881 13.3817C14.9404 13.5007 14.98 13.6394 14.9008 13.7982C14.8889 13.822 14.8779 13.8444 14.8674 13.8659C14.8079 13.9874 14.7641 14.0768 14.6631 14.1947C14.6233 14.2411 14.5823 14.2911 14.5412 14.3411C14.4595 14.4407 14.3777 14.5403 14.3065 14.6112C14.1875 14.7298 14.0636 14.8584 14.2022 15.0964C14.3409 15.3344 14.818 16.1128 15.5247 16.7432C16.2844 17.4208 16.9447 17.7072 17.2793 17.8524C17.3447 17.8807 17.3976 17.9037 17.4365 17.9231C17.6741 18.0421 17.8128 18.0222 17.9515 17.8636C18.0902 17.705 18.5457 17.1694 18.7042 16.9315C18.8626 16.6936 19.0212 16.7332 19.239 16.8125C19.457 16.8919 20.6258 17.4669 20.8635 17.5859C20.9099 17.6092 20.9533 17.6301 20.9935 17.6496Z" fill="white"/>
</svg>
