<svg width="24" height="25" viewBox="0 0 24 25" fill="none" xmlns="http://www.w3.org/2000/svg">
<path fill-rule="evenodd" clip-rule="evenodd" d="M0 12.8477C0 19.4751 5.37258 24.8477 12 24.8477C18.6274 24.8477 24 19.4751 24 12.8477C24 6.22024 18.6274 0.847656 12 0.847656C5.37258 0.847656 0 6.22024 0 12.8477ZM19.5303 12.3878C19.5287 16.3212 16.329 19.5217 12.3948 19.5233H12.3918C11.1976 19.5229 10.0241 19.2233 8.98189 18.6548L5.19922 19.6471L6.21153 15.9495C5.58709 14.8673 5.25851 13.6398 5.25904 12.3822C5.26061 8.44792 8.46163 5.24707 12.3947 5.24707C14.3035 5.24789 16.0951 5.991 17.4423 7.33978C18.7895 8.68848 19.531 10.4812 19.5303 12.3878Z" fill="#FFBDC8"/>
<path fill-rule="evenodd" clip-rule="evenodd" d="M6.9135 17.9522L9.15819 17.3634L9.37476 17.4919C10.2853 18.0323 11.3292 18.3182 12.3934 18.3186H12.3958C15.6647 18.3186 18.3252 15.658 18.3265 12.3878C18.3271 10.803 17.7108 9.31296 16.5911 8.19191C15.4713 7.07086 13.9822 6.45319 12.3981 6.45264C9.12672 6.45264 6.46614 9.11297 6.46484 12.383C6.46438 13.5036 6.77794 14.595 7.37162 15.5392L7.51264 15.7636L6.9135 17.9522ZM15.746 13.9241C15.8703 13.9842 15.9543 14.0247 15.9902 14.0846C16.0347 14.1589 16.0347 14.5159 15.8862 14.9325C15.7376 15.3489 15.0253 15.729 14.6827 15.7802C14.3756 15.8261 13.9868 15.8453 13.5597 15.7095C13.3008 15.6274 12.9687 15.5177 12.5433 15.334C10.8719 14.6122 9.74229 12.9922 9.5288 12.686C9.51385 12.6646 9.50339 12.6496 9.49755 12.6418L9.49611 12.6399C9.40175 12.514 8.76953 11.6704 8.76953 10.7974C8.76953 9.97616 9.17295 9.54569 9.35865 9.34754C9.37137 9.33397 9.38307 9.32148 9.39355 9.31004C9.55697 9.13154 9.75014 9.08691 9.86899 9.08691C9.98784 9.08691 10.1068 9.08801 10.2107 9.09323C10.2235 9.09387 10.2369 9.0938 10.2506 9.09371C10.3545 9.09311 10.4841 9.09235 10.6119 9.39929C10.661 9.51742 10.733 9.69254 10.8088 9.87725C10.9622 10.2508 11.1318 10.6634 11.1616 10.7231C11.2062 10.8124 11.2359 10.9165 11.1764 11.0355C11.1675 11.0534 11.1593 11.0702 11.1514 11.0863C11.1067 11.1774 11.0739 11.2445 10.9982 11.3329C10.9684 11.3677 10.9376 11.4052 10.9068 11.4427C10.8454 11.5174 10.7841 11.5921 10.7307 11.6453C10.6414 11.7342 10.5485 11.8307 10.6525 12.0092C10.7565 12.1877 11.1144 12.7715 11.6444 13.2443C12.2142 13.7525 12.7094 13.9673 12.9604 14.0762C13.0094 14.0974 13.0491 14.1146 13.0782 14.1292C13.2564 14.2185 13.3604 14.2036 13.4645 14.0846C13.5685 13.9656 13.9102 13.564 14.029 13.3855C14.1478 13.2071 14.2667 13.2368 14.4301 13.2963C14.5936 13.3558 15.4702 13.7871 15.6485 13.8763C15.6833 13.8938 15.7158 13.9095 15.746 13.9241Z" fill="#FFBDC8"/>
</svg>
